<?xml version="1.0" standalone="no"?>
<!DOCTYPE svg PUBLIC "-//W3C//DTD SVG 20010904//EN"
 "http://www.w3.org/TR/2001/REC-SVG-20010904/DTD/svg10.dtd">
<svg version="1.0" xmlns="http://www.w3.org/2000/svg"
 width="200.000000pt" height="200.000000pt" viewBox="0 0 200.000000 200.000000"
 preserveAspectRatio="xMidYMid meet">

<g transform="translate(0.000000,200.000000) scale(0.100000,-0.100000)"
fill="#000000" stroke="none">
<path d="M918 1302 c-50 -3 -67 -25 -28 -35 18 -5 20 -14 20 -106 0 -94 1
-101 20 -101 19 0 20 7 20 105 0 98 1 105 20 105 22 0 28 26 8 31 -7 2 -34 3
-60 1z"/>
<path d="M763 1292 l-43 -3 0 -125 c0 -96 3 -125 13 -122 6 3 13 23 15 46 4
55 28 56 42 2 10 -36 27 -50 42 -34 3 3 1 21 -5 40 -8 27 -8 40 1 55 7 10 12
43 12 74 0 63 -10 72 -77 67z m37 -77 c0 -41 -2 -45 -25 -45 -22 0 -25 4 -25
39 0 22 5 42 13 44 31 13 37 6 37 -38z"/>
<path d="M1020 1179 c0 -109 2 -120 18 -117 14 3 17 17 20 98 3 108 -2 140
-23 140 -12 0 -15 -21 -15 -121z"/>
<path d="M1090 1180 c0 -113 1 -120 20 -120 17 0 20 7 20 39 0 57 13 57 35 0
13 -33 25 -49 37 -49 24 0 23 7 -8 75 l-27 58 27 54 c24 48 24 54 9 60 -9 4
-18 2 -20 -3 -2 -5 -14 -27 -28 -49 l-24 -40 -1 48 c0 40 -3 47 -20 47 -19 0
-20 -7 -20 -120z"/>
<path d="M613 1267 l-43 -10 0 -120 0 -119 48 7 c56 8 62 11 62 31 0 13 -8 14
-41 9 l-40 -7 3 33 c3 29 8 35 33 39 18 3 31 12 33 23 3 16 -2 18 -30 15 -31
-3 -33 -1 -36 29 -3 29 -1 31 37 38 31 5 41 11 41 26 0 21 -5 21 -67 6z"/>
<path d="M1282 1177 c-12 -57 -22 -111 -22 -120 0 -27 29 -20 36 9 4 17 11 23
21 20 8 -3 21 -6 29 -6 8 0 14 -8 14 -19 0 -20 27 -48 37 -38 9 9 -38 241 -51
249 -33 22 -43 8 -64 -95z m63 -24 c7 -43 2 -50 -23 -35 -9 6 -11 21 -6 51 8
50 19 43 29 -16z"/>
<path d="M513 1242 c-6 -4 -17 -39 -24 -77 -17 -103 -25 -108 -39 -27 -11 59
-17 72 -32 72 -10 0 -18 -4 -18 -9 0 -15 48 -212 53 -217 2 -2 11 -2 19 1 10
4 22 44 37 123 12 64 24 123 26 130 5 14 -4 15 -22 4z"/>
<path d="M1440 1130 l0 -119 52 -16 c63 -18 58 -19 58 4 0 14 -10 21 -37 28
l-38 9 -3 107 c-2 86 -6 107 -17 107 -12 0 -15 -21 -15 -120z"/>
<path d="M1055 979 c-27 -29 -42 -47 -32 -40 20 16 22 9 5 -22 -20 -35 -24
-36 -92 -28 -4 1 -6 12 -2 25 4 17 -1 29 -17 42 l-22 19 19 -23 c11 -12 17
-25 14 -28 -7 -6 -49 46 -44 55 2 3 -7 14 -20 24 -21 15 -24 16 -24 2 0 -20
17 -50 59 -103 l34 -44 -37 -37 c-20 -20 -36 -44 -36 -53 0 -9 -4 -20 -10 -23
-5 -3 -10 -16 -10 -28 1 -18 14 -8 70 51 l68 74 25 -39 c14 -21 42 -54 62 -73
l38 -35 -6 38 c-4 23 -20 56 -42 82 -19 24 -35 47 -35 52 0 5 16 24 35 43 19
19 35 41 35 50 0 9 5 21 11 27 6 6 9 18 7 27 -2 13 -16 3 -53 -35z m15 -3 c0
-2 -8 -10 -17 -17 -16 -13 -17 -12 -4 4 13 16 21 21 21 13z"/>
<path d="M996 903 c-6 -14 -5 -15 5 -6 7 7 10 15 7 18 -3 3 -9 -2 -12 -12z"/>
</g>
</svg>
