<?xml version="1.0" standalone="no"?>
<!DOCTYPE svg PUBLIC "-//W3C//DTD SVG 20010904//EN"
 "http://www.w3.org/TR/2001/REC-SVG-20010904/DTD/svg10.dtd">
<svg version="1.0" xmlns="http://www.w3.org/2000/svg"
 width="500.000000pt" height="500.000000pt" viewBox="0 0 500.000000 500.000000"
 preserveAspectRatio="xMidYMid meet">

<g transform="translate(0.000000,500.000000) scale(0.100000,-0.100000)"
fill="#000000" stroke="none">
<path d="M0 2500 l0 -2500 2500 0 2500 0 0 2500 0 2500 -2500 0 -2500 0 0
-2500z m2265 536 c71 -19 140 -51 196 -91 27 -19 49 -34 49 -32 0 1 -9 26 -20
55 -11 29 -20 57 -20 62 0 7 32 10 87 8 l87 -3 160 -442 c89 -243 163 -444
166 -447 3 -3 79 197 170 444 l163 450 88 0 89 0 -23 -62 c-13 -35 -108 -294
-212 -576 l-190 -512 -84 2 -83 3 -165 445 c-91 245 -168 449 -172 453 -4 4
-27 -8 -52 -26 l-44 -34 -48 43 c-173 155 -425 149 -587 -15 -96 -97 -135
-215 -118 -358 23 -202 208 -363 416 -363 118 0 204 34 293 117 l45 42 67 -41
c37 -22 67 -45 67 -50 0 -25 -130 -135 -200 -171 -395 -199 -860 87 -860 528
0 262 186 502 440 569 70 19 230 20 295 2z"/>
</g>
</svg>
